# xmcd CD database file
#
# Track frame offsets:
#	150
#	15010
#	33026
#	44269
#	56269
#	69631
#	78829
#	91098
#	103816
#	118345
#	129867
#	142943
#
# Disc length: 2055 seconds
#
# Revision: 0
# Processed by: cddbd v1.4PL0 Copyright (c) Steve Scherf et al.
# Submitted via: ACXtractor (MTCDDB.DLL V2002.09.11)
#
DISCID=8708050c
DTITLE=Rock River Revival - One More River
DYEAR=2001
DGENRE=Country
TTITLE0=Turn Your Radio On
TTITLE1=Turn Back Time
TTITLE2=When He Calls
TTITLE3=Calm the Troubled Waters
TTITLE4=Wayfaring Stranger
TTITLE5=The Little River Mission
TTITLE6=One More River
TTITLE7=Patent Shoes
TTITLE8=Sweet Beulah Land
TTITLE9=Let Me Walk Lord By Your Side
TTITLE10=Don't Wait Too Late
TTITLE11=Lord Send Revival Again
EXTD=YEAR: 2001 ID3G:   2 
EXTT0=
EXTT1=
EXTT2=
EXTT3=
EXTT4=
EXTT5=
EXTT6=
EXTT7=
EXTT8=
EXTT9=
EXTT10=
EXTT11=
PLAYORDER=
